<svg width="1355" height="1063" viewBox="0 0 1355 1063" fill="none" xmlns="http://www.w3.org/2000/svg">
<path d="M559.65 896.216C575.06 890.642 592.75 883.454 609.93 876.263C617.819 872.95 625.547 869.641 632.841 866.517C633.17 866.376 633.497 866.236 633.821 866.096C643.251 861.998 653.299 857.548 665.204 850.685C665.908 850.278 666.612 849.868 667.303 849.462C668.165 848.951 669.022 848.434 669.898 847.892C679.509 842.143 692.24 831.959 702.208 820.061C708.635 812.55 715.018 802.533 718.754 789.913C719.566 787.172 720.225 784.393 720.731 781.605C723.319 746.087 710.271 735.218 702.37 721.539C691.713 707.169 680.514 701.806 674.837 697.937C657.927 687.347 642.973 683.477 631.448 679.907C604.202 672.128 584.946 668.325 575.379 666.301C566.383 664.454 557.229 662.584 547.604 660.739C530.3 657.428 510.028 653.968 488.13 653.158C472.038 652.413 453.384 652.658 433.813 655.559C431.589 655.883 429.385 656.232 427.19 656.603C421.567 657.552 415.998 658.63 410.422 659.786C405.903 660.724 402.059 660.516 401.683 659.294C401.318 658.072 404.574 656.298 409.122 655.351C414.611 654.21 420.104 653.135 425.652 652.186C425.678 652.181 425.703 652.177 425.728 652.173C428.184 651.753 430.653 651.358 433.151 650.995C453.186 648.025 472.193 647.803 488.348 648.549C510.722 649.381 531.276 652.915 548.555 656.21C557.497 657.919 565.993 659.641 574.349 661.344C584.272 663.43 604.282 667.349 632.774 675.487C644.408 679.103 659.697 683.039 677.256 694.016C682.859 697.873 694.634 703.415 706.094 718.82C714.177 733.029 727.988 743.735 725.304 782.334C724.586 786.334 723.565 790.325 722.254 794.214C718.236 806.135 712.053 815.668 705.821 822.979C694.776 836.265 680.31 847.36 669.999 853.28C669.946 853.312 669.894 853.343 669.841 853.375C668.383 854.234 666.904 855.088 665.451 855.908C665.416 855.927 665.381 855.947 665.346 855.966C652.98 862.895 643.359 867.018 634.215 870.965C634.023 871.048 633.831 871.131 633.637 871.214C626.55 874.227 619.154 877.371 611.679 880.501C594.152 887.813 576.399 895.056 561.098 900.591C556.931 902.093 553.237 902.322 552.841 901.112C552.443 899.904 555.49 897.717 559.65 896.216ZM1019.61 775.072C1018.51 770.262 1017.27 765.373 1015.92 760.288C1012.31 747.389 1005.92 738.76 1000.97 729.816C995.222 719.78 988.802 709.888 982.004 700.798C981.363 699.941 980.719 699.091 980.071 698.248C973.491 689.66 966.322 681.729 959.237 675.096C948.398 664.773 936.948 657.493 929.313 653.602C928.606 653.234 927.931 652.892 927.293 652.573C916.551 647.215 903.813 643.58 889.149 641.85C887.705 641.68 886.239 641.527 884.748 641.394C880.926 641.053 876.953 640.841 872.851 640.775C862.911 640.613 852.187 641.327 840.913 643.058C836.8 643.679 832.185 644.569 827.703 645.738C777.132 662.108 750.858 679.207 728.17 690.353C725.088 691.982 721.92 693.669 719.134 695.162C714.499 697.645 710.251 699.944 706.174 702.154C706.167 702.158 706.16 702.162 706.153 702.165C691.037 710.369 679.759 716.553 669.114 721.707C650.163 730.891 634.717 738.349 615.751 746.845C589.614 758.551 554.09 778.298 531.636 792.327C530.405 793.096 529.153 793.883 527.883 794.677C511.584 804.858 491.533 817.418 461.031 835.129C456.011 838.039 451.15 840.816 446.484 843.447C426.889 854.482 409.192 863.8 393.057 871.876C387.334 874.738 381.784 877.448 376.589 879.914C366.965 884.463 358.488 888.332 350.846 890.894C347.614 892.007 344.626 892.987 341.996 893.714C338.771 894.613 335.825 895.152 332.133 895.645C317.073 897.664 302.425 897.543 292.89 895.352C287.518 894.228 280.658 888.685 274.387 882.031C271.845 879.385 269.181 874.586 266.853 869.409C263.034 860.835 260.624 852.015 259.004 844.562C258.462 842.049 258.069 839.846 257.774 837.741C255.67 820.219 257.491 807.618 258.18 799.382C258.196 799.227 258.212 799.073 258.228 798.92C258.493 796.35 258.745 794.091 258.954 791.949C260.847 772.861 262.331 755.15 264.799 734.139C265.354 729.475 265.97 724.636 266.673 719.604C268.212 708.589 269.422 699.488 270.408 691.837C270.928 687.801 271.393 684.141 271.814 680.801C272.349 676.569 272.82 672.839 273.293 669.316C273.301 669.252 273.309 669.187 273.317 669.122C273.382 668.633 273.45 668.149 273.517 667.662C273.568 667.297 273.614 666.932 273.665 666.567C273.669 666.421 273.679 666.291 273.684 666.194C273.688 666.117 273.691 666.057 273.694 666.018C273.693 666.011 273.693 666.003 273.692 665.996C273.735 665.298 273.814 664.703 273.83 664.579C273.858 664.365 273.889 664.177 273.903 664.08C273.98 663.57 274.095 662.919 274.173 662.488C274.376 661.376 274.736 659.446 275.336 656.459C275.812 653.851 276.235 651.345 276.792 648.203C276.826 648.005 276.861 647.807 276.896 647.61C277.443 644.547 278.108 640.968 279.05 636.49C279.906 632.413 281.755 628.943 283.12 628.723C284.486 628.509 284.839 631.612 283.976 635.646C283.082 639.832 282.453 643.152 281.897 646.189C281.862 646.382 281.828 646.574 281.793 646.768C281.219 649.93 280.696 652.941 280.099 656.158C279.899 657.239 279.691 658.341 279.493 659.386C279.169 661.254 278.841 663.391 278.475 665.96C278.402 666.471 278.325 667 278.249 667.542C277.766 671.023 277.238 675.079 276.646 679.642C276.142 683.525 275.59 687.778 274.978 692.469C273.904 700.705 272.616 710.421 271.023 722.024C270.368 726.804 269.784 731.459 269.25 736.016C266.816 757.011 265.236 775.972 263.35 796.059C263.247 797.154 263.142 798.296 263.034 799.365C262.878 800.989 262.718 802.587 262.561 804.226C261.937 812.293 260.454 822.991 262.575 838.485C262.812 839.997 263.108 841.599 263.491 843.401C265.015 850.524 267.355 859.17 271.012 867.416C273.229 872.394 275.771 876.834 277.677 878.805C283.723 885.288 290.199 890.193 293.937 890.865C302.467 892.856 316.874 893.065 331.555 891.07C334.925 890.619 337.505 890.15 340.274 889.403C342.846 888.715 345.914 887.721 349.335 886.543C356.974 883.992 365.789 879.934 375.428 875.365C380.534 872.931 385.826 870.334 391.185 867.653C407.377 859.545 424.898 850.313 444.288 839.374C448.416 837.041 452.771 834.552 457.158 832.009C486.995 814.692 506.522 802.467 522.707 792.355C523.267 792.004 523.828 791.652 524.39 791.299C525.087 790.863 525.786 790.427 526.463 790.004C550.372 775.066 588.155 754.01 617.043 741.077C635.15 732.972 650.002 725.802 668.812 716.693C678.1 712.198 687.752 706.902 702.578 698.853C706.788 696.569 711.33 694.115 716.473 691.359C719.396 689.793 722.763 687.999 726.026 686.275C749.283 674.923 775.033 657.71 827.677 640.98C831.917 639.916 836.317 639.087 840.14 638.509C851.553 636.76 862.413 636.006 872.782 636.163C877.081 636.228 881.308 636.453 885.442 636.829C886.85 636.957 888.25 637.103 889.638 637.266C904.455 638.994 918.772 642.839 931.242 649.287C931.831 649.591 932.41 649.898 932.988 650.211C939.781 653.818 951.261 661.081 962.283 671.579C969.768 678.581 977.464 687.135 984.468 696.392C984.86 696.907 985.249 697.423 985.636 697.942C992.733 707.435 999.24 717.526 1004.97 727.52C1010 736.634 1016.62 745.474 1020.48 759.262C1021.46 762.895 1022.38 766.411 1023.24 769.79C1023.8 772.017 1024.34 774.281 1024.83 776.636C1025.93 781.931 1026.9 787.486 1027.12 794.038C1027.08 800.494 1027.59 808.868 1020.35 819.667C1013.82 829.237 1007.33 835.685 1001.72 841.611C998.049 845.846 994.012 849.954 989.628 853.99C975.941 866.581 959.383 878.9 939.525 890.408C923.082 899.813 905.523 908.152 885.447 914.964C875.415 918.168 865.156 921.634 849.918 922.71C836.93 924.007 813.162 923.532 795.543 916.216C789.838 914.017 784.127 911.741 777.883 908.85C774.747 907.383 771.49 905.789 767.693 903.568C763.858 901.138 759.622 899.099 752.906 891.626C742.279 879.978 734.013 860.001 733.293 844.89C733.084 842.398 732.942 839.846 732.876 837.372C732.839 835.977 732.825 834.618 732.83 833.249C733.018 816.425 735.487 802.929 737.915 790.219C744.662 757.351 751.971 730.631 756.673 709.155C759.507 696.252 761.078 686.83 760.713 681.245C760.577 674.382 760.064 671.225 759.808 670.511C759.1 668.016 758.491 666.182 757.973 664.776C757.736 664.134 757.518 663.581 757.322 663.102C757.146 662.674 756.984 662.303 756.842 661.984C755.035 657.977 753.219 655.622 750.46 652.947C749.763 652.27 749.037 651.587 748.282 650.899C748.017 650.658 747.746 650.413 747.477 650.173C742.288 645.547 735.947 640.713 727.877 635.173C727.764 635.096 727.652 635.019 727.539 634.942C712.273 624.522 696.854 616.503 682.158 609.84C667.136 603.071 652.612 597.476 639.193 592.687C634.259 590.932 629.445 589.283 624.777 587.757C624.763 587.752 624.75 587.747 624.736 587.743C622.724 587.085 620.741 586.451 618.792 585.842C603.091 580.911 590.365 577.973 576.858 576.151C574.716 575.852 572.617 575.581 570.545 575.338C554.64 573.469 540.922 573.567 528.711 573.941C517.497 574.32 507.822 574.998 499.392 575.703C493.863 576.169 488.78 576.665 484.009 577.177C474.23 578.236 465.654 579.339 457.471 580.594C457.033 580.661 456.6 580.729 456.173 580.797C442.862 582.924 433.733 585.402 424.798 589.812C422.41 590.96 420.098 592.161 417.884 593.403C416.883 593.964 415.901 594.533 414.944 595.109C411.716 597.054 408.725 599.107 406.311 601.046C401.809 604.446 399.524 607.61 400.78 606.014C398.862 609.505 397.482 612.747 396.66 615.53C396.076 617.483 394.876 618.673 393.602 618.546C392.345 618.407 391.524 616.668 392.19 614.384C393.131 611.147 394.673 607.54 396.764 603.736C396.149 604.28 398.835 600.933 403.514 597.366C405.886 595.467 408.715 593.507 411.77 591.629C412.761 591.02 413.779 590.414 414.82 589.819C417.383 588.354 420.083 586.942 422.888 585.597C432.062 581.082 441.607 578.476 454.886 576.333C455.523 576.231 456.155 576.132 456.806 576.031C464.578 574.836 472.545 573.793 481.919 572.756C486.765 572.223 492.023 571.696 497.881 571.194C506.689 570.445 516.8 569.725 528.604 569.327C540.898 568.952 554.758 568.859 570.797 570.724C572.998 570.981 575.231 571.268 577.504 571.584C591.175 573.425 604.265 576.44 620.205 581.451C621.926 581.989 623.683 582.55 625.46 583.128C630.194 584.668 635.085 586.332 640.118 588.117C653.807 592.987 668.637 598.686 684.078 605.644C698.887 612.362 714.464 620.455 729.956 631.009C730.132 631.129 730.307 631.249 730.48 631.367C738.173 636.648 744.357 641.289 749.798 646.049C750.111 646.325 750.417 646.597 750.722 646.871C751.77 647.811 752.79 648.761 753.769 649.717C756.745 652.609 758.961 655.489 760.966 659.907C761.302 660.656 761.721 661.644 762.208 662.949C762.793 664.516 763.472 666.545 764.242 669.261C764.674 670.605 765.178 674.228 765.318 681.119C765.696 687.38 764.016 697.169 761.175 710.132C756.437 731.761 749.13 758.498 742.442 791.078C740.022 803.725 737.582 817.156 737.438 833.559C737.436 833.925 737.437 834.287 737.438 834.646C737.458 837.948 737.615 841.288 737.887 844.46C738.825 861.198 747.844 879 756.556 888.483C763.429 895.997 767.492 897.651 771.277 899.973C775.004 902.045 778.181 903.523 781.183 904.864C787.173 907.513 792.388 909.5 797.332 911.334C818.264 919.332 839.137 917.782 849.556 916.632C854.218 916.261 858.259 915.525 861.863 914.704C870.522 912.682 877.166 910.371 883.248 908.231C895.618 903.781 905.1 899.684 913.451 895.961C915.821 894.897 918.052 893.868 920.172 892.872C926.378 889.955 931.641 887.308 936.541 884.64C938.868 883.372 941.1 882.103 943.299 880.795C961.12 870.096 973.397 860.849 986.364 849.266C988.431 847.409 990.502 845.477 992.592 843.439C999.992 836.078 1008.59 828.233 1016.51 816.714C1026.21 799.928 1021.71 790.688 1021 781.949C1021 781.918 1020.99 781.888 1020.99 781.858C1020.57 779.495 1020.1 777.242 1019.61 775.072ZM293.513 578.01C294.962 574.214 297.146 571.67 298.309 572.182C299.47 572.705 299.2 576.022 297.778 579.753C295.109 586.741 292.601 594.118 290.18 601.648C289.526 603.684 288.876 605.739 288.24 607.786C286.99 611.804 285.047 614.748 283.833 614.368C282.625 613.969 282.612 610.368 283.874 606.31C284.499 604.302 285.139 602.277 285.781 600.278C288.234 592.649 290.781 585.154 293.513 578.01ZM998.147 794.895C998.127 791.528 998.599 787.604 999.765 786.592C1000.9 785.577 1002.45 788.012 1002.75 791.991C1002.85 794.054 1003.17 797.629 1002.21 801.559C1001.92 802.653 1001.51 803.733 1000.9 804.702C995.943 812.269 986.464 821.536 973.97 831.333C960.87 841.549 944.791 852.972 925.893 864.052C911.148 872.597 894.77 880.919 876.565 887.772C867.814 890.943 858.759 894.123 848.275 895.179C835.003 896.858 818.963 897.14 804.446 891.931C796.952 889.347 789.475 886.761 781.716 882.853C778.36 881.049 775.06 879.392 771.534 875.587C767.589 871.21 764.065 866.216 761.612 860.928C758.834 855.008 757.215 848.84 756.418 842.728C754.414 827.362 755.489 812.212 758.134 794.054C760.677 777.175 764.85 757.618 770.85 732.493C772.385 726.029 773.915 719.561 775.319 713.204C777.752 701.808 780.227 690.618 779.876 680.722C779.749 674.712 779.492 669.335 778.359 665.284C775.502 654.643 771.488 646.209 764.61 639.137C757.285 631.545 748.585 624.665 739.428 618.287C724.269 607.749 707.884 598.708 690.895 590.752C669.774 580.941 647.699 572.25 625.553 564.822C610.447 559.777 595.585 555.828 580.049 553.583C562.957 550.927 545.758 550.211 528.169 550.49C503.392 550.962 478.212 552.472 453.843 555.694C439.76 557.654 426.438 560.443 414.069 566.141C405.571 569.95 397.347 574.463 390.186 579.832C384.739 583.932 379.811 588.225 377.286 592.687C371.784 602.267 368.254 612.564 368.456 622.753C368.584 635.377 369.793 647.138 373.308 658.724C376.201 668.348 379.532 678.205 383.021 687.639C383.523 688.992 384.063 690.315 384.295 690.691C384.397 690.881 384.353 690.691 383.904 690.295C383.464 689.893 382.733 689.596 382.536 689.566C382.117 689.516 383.198 689.597 384.318 689.432C385.48 689.292 386.85 689.051 388.254 688.782C403.922 685.582 420.34 681.364 437.182 678.798C453.674 676.238 470.571 675.599 487.037 676.251C501.547 676.698 516.323 678.429 530.52 680.904C534.678 681.619 538.773 682.38 542.892 683.187C570.453 688.709 597.424 695.105 624.55 702.892C636.874 706.612 650.116 710.535 662.333 718.202C668.733 722.199 677.037 726.701 683.449 735.355C691.064 746.747 700.321 758.269 698.675 778.09C697.031 788.714 692.153 798.714 685.649 806.686C682.966 810.008 680.045 813.425 676.86 816.666C671.203 822.472 664.215 828.04 656.567 832.905C640.695 843.168 621.81 851.522 602.842 859.09C566.59 873.308 529.323 885.467 504.696 894.554C493.77 898.581 485.329 901.899 480.426 904.058C476.476 905.735 473.699 906.274 473.843 904.651C472.057 904.282 474.709 901.455 478.685 899.791C483.68 897.596 492.126 894.277 503.034 890.257C527.749 881.137 565.045 868.966 601.085 854.833C619.962 847.306 638.599 839.042 654.06 829.04C661.262 824.455 667.753 819.317 673.06 813.952C676.301 810.7 679.283 807.231 682.062 803.788C688.139 796.333 692.606 787.134 694.121 777.364C695.646 760.535 687.151 748.94 679.724 738.075C674.087 730.433 666.391 726.143 659.91 722.128C648.314 714.836 635.473 711.002 623.223 707.312C596.32 699.59 569.332 693.191 541.942 687.71C538.236 686.984 534.523 686.291 530.811 685.645C516.346 683.092 501.539 681.333 486.816 680.911C470.541 680.304 454.038 680.987 437.873 683.562C421.323 686.153 405.164 690.393 389.189 693.757C386.349 694.311 383.12 694.906 381.379 694.551C380.976 694.461 380.787 694.367 380.573 694.199C380.361 694.032 380.086 693.696 379.807 693.21C379.242 692.229 378.708 690.84 378.171 689.445C374.555 679.857 371.164 670.049 368.138 660.252C364.368 648.198 362.989 635.637 362.762 622.855C362.433 611.333 366.317 599.941 372.06 589.722C375.349 583.869 380.832 579.224 386.43 574.889C394.063 569.052 402.583 564.287 411.389 560.228C424.378 554.078 438.541 550.971 452.845 548.838C477.675 545.297 502.871 543.53 527.991 542.785C545.8 542.315 563.602 542.861 581.204 545.416C597.202 547.554 612.843 551.543 628.222 556.527C650.836 563.878 673.131 572.429 694.776 582.272C712.208 590.269 729.128 599.433 744.919 610.26C754.47 616.828 763.652 623.963 771.706 632.21C779.943 640.479 785.017 651.24 788.046 662.555C789.635 668.251 789.825 674.343 789.992 680.445C790.382 692.118 787.709 703.777 785.272 715.366C783.823 721.959 782.258 728.578 780.691 735.178C774.671 760.369 769.696 779.41 766.181 795.58C762.458 813.136 760.1 827.479 761.394 842.263C761.858 847.411 763.025 852.604 765.189 857.611C767.463 862.938 770.897 867.988 775.038 872.569C777.365 875.11 779.988 876.646 782.688 878.14C790.372 882.188 798.236 884.891 806.041 887.58C819.85 892.469 834.595 892.209 847.998 890.536C857.65 889.547 866.544 886.468 875.117 883.337C892.99 876.584 909.233 868.314 923.736 859.881C942.489 848.857 958.469 837.463 971.281 827.441C983.845 817.58 992.941 808.394 997.132 801.806C997.159 801.751 997.185 801.693 997.211 801.633C997.978 800.019 998.192 796.702 998.147 794.895ZM879.21 665.527C868.735 665.034 857.185 665.655 845.1 667.709C812.535 674.036 775.422 695.889 740.214 713.256C732.121 717.423 724.111 721.586 716.22 725.709C689.903 739.467 665.473 752.449 645.963 762.939C615.768 779.185 596.287 788.593 576.972 797.907C576.765 798.007 576.557 798.108 576.35 798.208C557.044 807.518 537.747 816.865 507.069 833.417C492.348 841.353 474.926 850.996 456.154 861.389C435.459 872.816 413.279 885.172 390.479 897.047C390.445 897.064 390.41 897.082 390.375 897.099C379.919 902.455 369.427 908.099 358.291 912.33C350.922 915.23 342.872 917.713 335.064 918.851C318.679 921.419 302.627 922.495 287.241 919.555C275.284 916.978 266.557 909.823 259.88 903.468C258.628 902.262 257.418 901.048 256.239 899.833C250.403 893.777 246.847 886.912 243.78 880.472C239.17 870.548 236.134 860.708 233.742 851.098C229.063 832.626 229.404 815.163 229.529 799.48C230.65 750.463 235.57 713.683 240.452 687.695C241.983 679.669 243.549 672.687 245.021 666.686C250.82 643.01 257.267 618.446 265.051 593.824C269.939 578.342 275.22 562.867 282.412 548.284C287.054 538.785 292.152 529.467 298.201 521.067C305.509 510.866 315.461 503.245 326.358 497.44L326.123 497.574C330 495.808 334.091 494.564 338.274 493.709C339.997 493.354 341.648 493.092 343.335 492.917C348.159 492.915 344.732 494.948 339.312 497.353C336.143 498.75 332.311 500.336 328.447 501.987L328.973 501.687C328.929 501.71 328.885 501.733 328.841 501.756C328.413 501.986 327.985 502.219 327.562 502.452C323.539 504.686 320.154 506.691 315.856 510.016C309.745 514.952 306.019 519.402 302.936 523.7C302.837 523.839 302.732 523.989 302.619 524.149C300.002 527.809 293.899 537.308 287.334 550.657C281.082 563.005 275.127 578.711 269.699 595.271C260.077 623.937 252.782 653.983 248.915 670.552C247.687 675.67 246.494 681.59 245.388 688.377C241.392 713.346 238.188 750.012 238.335 799.45C238.601 814.915 238.677 831.677 243.243 848.64C245.629 857.734 248.651 867.107 252.899 876.1C255.793 882.132 259.035 888.08 263.516 892.695C264.713 893.927 265.928 895.142 267.166 896.329C273.273 902.149 280.428 908.119 289.359 910.477C302.535 913.729 318.289 913.929 334.237 912.309C341.771 911.629 349.039 909.789 356.515 907.217C366.992 903.738 377.216 898.647 387.4 893.435C387.517 893.375 387.635 893.314 387.753 893.253C410.558 881.397 432.951 868.921 453.963 857.323C472.607 847.004 490.028 837.365 504.82 829.391C536.614 812.237 556.768 802.48 576.344 793.039C576.535 792.948 576.725 792.857 576.915 792.766C596.047 783.542 614.633 774.566 643.721 758.915C663.662 748.194 688.394 735.044 714.882 721.203C722.529 717.209 730.268 713.188 738.067 709.173C773.566 691.715 810.038 669.945 844.328 663.167C856.479 661.102 868.139 660.44 878.769 660.892C883.095 661.068 886.633 662.476 886.674 663.757C886.713 665.045 883.377 665.716 879.21 665.527ZM876.904 694.155C868.077 694.17 859.122 695.169 850.083 697.048C826.984 702.365 788.208 724.865 755.292 741.927C678.91 782.801 601.508 823.606 524.125 861.893C509.076 870.007 491.125 879.652 471.586 890.019C450.346 901.257 427.715 913.208 403.868 924.944C403.347 925.198 402.834 925.446 402.329 925.691C391.901 930.7 381.184 936.028 368.072 940.488C360.365 943.263 347.771 946.593 338.675 947.447C319.569 949.514 302.167 950.32 281.119 945.778C260.618 940.611 249.096 929.477 241.021 921.916C239.757 920.686 238.557 919.479 237.412 918.301C228.043 908.528 223.6 899.327 219.969 891.889C214.218 879.587 210.849 868.61 208.055 857.745C202.28 835.25 202.661 815.761 202.572 799.573C203.17 748.917 207.392 711.377 212.139 683.779C213.703 674.865 215.35 667.169 216.954 660.591C226.324 623.682 229.771 613.845 233.893 598.878C234.013 598.471 234.132 598.067 234.252 597.665C234.256 597.637 234.26 597.61 234.264 597.582C234.353 597.064 234.45 596.614 234.5 596.391C234.604 595.932 234.701 595.564 234.737 595.427C234.82 595.109 234.898 594.846 234.924 594.753C235.036 594.364 235.169 593.919 235.256 593.636C235.7 592.192 236.712 588.99 237.915 585.376C238.885 582.456 239.994 579.218 241.035 576.319C243.428 569.659 245.375 564.883 247.552 559.851C247.773 559.342 247.999 558.824 248.222 558.32C250.23 553.779 252.51 548.754 256.062 541.711C257.08 539.7 258.184 538.09 259.151 537.071C260.243 535.918 261.168 535.493 261.633 536.06C261.957 536.457 262.013 537.281 261.85 538.372C261.575 540.22 260.66 542.858 259.337 545.527C255.711 552.854 253.4 558.092 251.454 562.584C251.237 563.088 251.027 563.575 250.813 564.079C248.798 568.834 247.137 572.991 245.044 578.842C244.058 581.714 243.195 584.334 242.411 586.775C240.883 591.532 239.647 595.645 238.52 599.501C234.27 614.886 230.354 626.182 220.808 664.611C219.46 670.27 218.072 676.834 216.729 684.414C212.132 710.887 207.798 748.151 207.18 799.557C207.264 815.598 206.895 834.712 212.514 856.591C215.243 867.218 218.557 877.993 224.122 889.898C227.654 897.153 231.939 905.943 240.7 915.076C241.809 916.217 242.965 917.381 244.18 918.563C252.033 925.948 263.056 936.487 282.166 941.293C302.23 945.641 319.416 944.913 338.098 942.877C346.993 942.032 358.888 938.886 366.561 936.137C379.309 931.808 389.932 926.539 400.313 921.549C400.829 921.298 401.353 921.041 401.885 920.78C425.614 909.1 448.219 897.167 469.399 885.962C488.921 875.606 506.856 865.972 521.879 857.872C599.063 816.281 674.444 773.624 750.849 733.479C784.07 716.678 822.547 694.986 848.999 690.665C858.326 689.287 867.559 688.873 876.557 689.529C879.081 689.613 881.565 689.777 884.008 690.019C894.116 691.012 902.882 693.231 910.155 696.445C915.384 698.75 920.135 701.632 924.802 705.159C926.46 706.412 928.104 707.745 929.743 709.154C936.394 714.865 942.171 721.097 947.569 727.875C953.621 735.479 958.944 743.372 963.622 751.266C969.243 760.475 973.785 768.875 973.899 769.755C975.604 776.514 977.013 783 977.743 788.192C978.114 790.731 978.258 792.979 978.315 793.872C978.506 794.842 978.012 793.701 981.182 789.538C980.22 791.112 978.796 792.964 976.966 795.018C974.492 797.822 968.853 803.134 959.286 810.084C949.739 817.006 936.725 825.704 921.14 834.666C918.513 836.172 915.807 837.683 913.03 839.182C906.03 842.96 898.407 846.763 890.241 850.441C882.978 853.707 875.212 856.921 867.38 859.651C859.809 862.291 851.652 864.636 846.479 865.07C832.559 866.402 824.94 866.404 815.003 863.132C809.347 861.175 803.624 859.089 798.905 856.998C797.182 856.234 795.675 855.486 794.726 854.956C794.258 854.698 793.934 854.492 793.889 854.484C793.845 854.488 794.093 854.649 794.833 855.525C792.885 853.382 791.665 851.781 790.672 850.169C788.847 847.178 787.766 844.048 787.232 839.848C785.975 829.616 787.078 816.948 790.118 800.119C792.79 785.5 796.954 767.647 802.461 744.649C804.254 737.115 806.193 729.08 808.137 720.331C810.479 708.872 813.816 696.327 813.482 679.804C813.279 673.584 813.349 665.869 810.737 656.163C807.513 643.494 800.215 627.07 788.708 615.617C779.079 605.681 768.817 597.7 758.457 590.469C740.92 578.278 722.596 568.331 704.946 560.054C679.467 548.219 655.974 539.322 635.934 532.55C634.505 532.073 633.112 531.614 631.726 531.164C613.14 525.044 596.979 521.602 584.835 519.74C573.702 517.968 564.743 517.097 557.441 516.562C553.164 516.25 549.423 516.051 546.017 515.908C539.192 515.63 533.59 515.546 527.363 515.583C525.479 515.595 523.51 515.621 521.456 515.663C495.026 516.319 472.627 517.887 448.829 521.272C433.91 523.497 416.533 527.095 399.958 535.008C390.126 539.634 380.218 545.032 369.822 553.04C363.67 558.079 355.63 563.804 348.369 576.284C346.574 579.544 344.845 583.014 343.255 586.736C340.986 591.978 338.506 596.718 337.153 596.808C335.805 596.913 336.082 591.977 338.391 586.378C340.222 581.917 342.245 577.815 344.346 574.002C352.257 560.458 360.725 554.54 367.025 549.359C377.808 541.063 387.957 535.547 398.051 530.801C415.075 522.676 433.043 518.953 448.164 516.707C472.347 513.274 494.937 511.7 521.715 511.046C523.629 511.008 525.478 510.984 527.256 510.971C534.149 510.927 540.284 511.032 547.583 511.355C550.989 511.51 554.656 511.718 558.776 512.031C565.907 512.575 574.666 513.452 585.481 515.172C597.774 517.052 614.44 520.596 633.473 526.885C634.743 527.298 636.032 527.723 637.345 528.162C657.542 534.985 681.121 543.908 706.864 555.863C724.692 564.22 743.245 574.284 761.06 586.664C771.587 594.013 782.059 602.139 792.007 612.397C804.138 624.437 811.892 641.942 815.175 654.913C817.989 665.387 817.877 673.417 818.091 679.678C818.426 697.056 814.99 709.765 812.642 721.31C810.7 730.056 808.774 738.04 806.993 745.52C801.441 768.706 797.287 786.535 794.651 800.979C791.653 817.571 790.63 829.846 791.834 839.418C792.282 842.816 793.114 845.191 794.399 847.402C795.257 848.851 796.284 850.255 798.337 852.507C796.461 850.392 796.434 850.693 796.953 850.909C797.5 851.211 798.643 851.803 800.024 852.431C804.56 854.503 810.635 856.732 816.595 858.791C825.786 861.739 832.136 861.779 846.203 860.455C850.533 860.094 858.546 857.853 865.944 855.255C873.248 852.707 880.592 849.687 887.463 846.62C895.895 842.85 903.742 838.942 910.905 835.073C913.299 833.78 915.639 832.478 917.921 831.178C934.307 821.806 947.465 812.939 956.652 806.273C965.074 800.135 969.859 795.719 971.996 793.462C974.506 790.827 976.483 788.373 977.462 786.677C973.434 792.034 973.917 793.969 973.668 793.427C973.578 792.979 973.463 790.957 973.111 788.597C972.424 783.749 971.057 777.397 969.386 770.772C969.65 771.214 965.28 762.773 959.62 753.564C955.025 745.812 949.81 738.098 943.941 730.728C938.659 724.098 933.087 718.107 926.722 712.642C924.992 711.156 923.27 709.769 921.544 708.483C917.251 705.287 912.963 702.724 908.272 700.656C901.485 697.658 893.193 695.55 883.519 694.603C881.347 694.389 879.141 694.239 876.904 694.155ZM521.267 715.231C517.195 714.562 513.906 713.058 513.802 711.756C513.711 710.457 516.922 709.848 521.026 710.509C526.541 711.397 531.712 712.344 536.574 713.282C550.816 716.053 562.152 718.582 571.464 720.693C591.637 725.332 602.757 728.139 615.819 731.981C617.728 732.551 619.657 733.144 621.643 733.78C631.424 736.944 639.4 739.839 646.257 744.254C653.24 748.448 657.43 751.557 658.645 753.466C661.833 757.841 664.538 762.315 666.27 766.273C668.09 770.129 668.364 773.824 668.254 773.241C667.442 778.26 665.244 782.894 661.667 787.314C660.081 789.274 658.584 791.051 657.099 792.689C651.948 798.406 646.373 802.872 639.835 807.103C624.07 817.338 606.82 824.716 591.313 831.158C568.48 840.43 548.963 847.392 535.651 852.217C531.521 853.701 527.839 853.923 527.446 852.713C527.048 851.505 530.083 849.323 534.206 847.841C547.453 843.04 566.916 836.094 589.556 826.9C604.947 820.511 622.01 813.193 637.329 803.239C643.48 799.255 648.578 795.187 653.33 789.988C654.852 788.33 656.401 786.501 658.084 784.421C661.244 780.506 663.025 776.665 663.705 772.516C663.626 774.644 663.717 771.547 662.055 768.134C660.513 764.602 657.969 760.361 654.923 756.184C654.473 755.278 650.902 752.393 643.836 748.177C637.468 744.073 630.063 741.358 620.429 738.233C618.401 737.582 616.435 736.977 614.494 736.398C602.174 732.775 591.646 730.099 572.195 725.6C562.625 723.418 550.766 720.754 535.624 717.807C531.101 716.934 526.335 716.06 521.267 715.231Z" fill="#006CFF"/>
<g filter="url(#filter0_f_1_123)">
<path d="M1187.58 22.0322C1174.84 25.5946 1163.31 31.8219 1153.54 36.5229C1148.7 38.8545 1144.04 41.136 1139.67 43.1412C1139.47 43.2317 1139.27 43.3221 1139.08 43.4131C1133.33 46.065 1127.47 48.7523 1120.47 52.2314C1119.58 52.6747 1118.67 53.1316 1117.74 53.6046C1115.07 54.958 1112.22 56.4473 1109.13 58.1268C1102.63 61.6707 1094.92 66.1257 1085.84 72.3292C1081.02 75.6293 1076.44 79.0484 1072.17 82.4634C1058.88 93.0806 1048.06 103.953 1039.37 113.71C1024.71 130.217 1015.94 143.757 1012.04 149.762C1011.71 150.279 1011.38 150.796 1011.05 151.315C1003.32 163.385 995.455 176.146 987.455 191.322C981.385 202.862 975.257 215.949 969.704 231.052C969.588 231.366 969.473 231.68 969.358 231.996C968.268 234.984 967.188 238.078 966.142 241.281C965.204 244.146 963.494 246.25 962.255 245.948C961.018 245.646 960.735 243.003 961.688 240.081C962.777 236.737 963.897 233.514 965.026 230.413C965.088 230.244 965.149 230.076 965.211 229.907C965.216 229.892 965.222 229.878 965.227 229.863C970.95 214.236 977.236 200.841 983.388 189.141C991.57 173.627 999.493 160.788 1007.25 148.624C1007.34 148.493 1007.42 148.362 1007.51 148.231C1011.53 141.989 1020.64 127.85 1035.94 110.631C1044.76 100.738 1055.7 89.7406 1069.14 78.9717C1073.79 75.2555 1078.78 71.5271 1084.06 67.9439C1092.79 62.0186 1100.28 57.6768 1106.62 54.2029C1110.29 52.2004 1113.63 50.4658 1116.72 48.909C1117.64 48.4436 1118.54 47.9957 1119.42 47.5629C1119.44 47.5529 1119.46 47.5429 1119.48 47.5328C1126.62 44.0142 1132.3 41.4332 1137.88 38.8744C1138 38.8191 1138.11 38.7639 1138.23 38.7088C1142.49 36.7642 1146.97 34.5908 1151.59 32.3744C1161.48 27.636 1173.28 21.2371 1186.42 17.5724C1189.97 16.5786 1193.28 16.939 1193.5 18.1897C1193.73 19.4416 1190.96 21.0785 1187.58 22.0322ZM911.061 763.526C907.021 762.402 902.67 760.868 898.173 759.008C888.183 754.888 877.56 749.132 868.146 743.31C854.384 734.824 842.678 725.907 837.331 721.514C832.102 717.221 825.996 712.921 818.731 707.771C817.066 706.59 815.338 705.363 813.558 704.085C813.267 703.877 812.975 703.667 812.681 703.455C807.041 699.394 800.866 694.808 794.336 689.512C769.156 668.988 753.235 654.978 741.726 645.087C739.366 643.043 737.174 641.139 735.126 639.346C735.123 639.343 735.119 639.34 735.116 639.337C732.167 636.756 729.518 634.407 727.099 632.199C723.184 628.626 719.88 625.429 716.926 622.206C708.432 612.924 701.659 605.184 694.086 595.311C683.615 581.722 666.843 564.358 655.218 553.632C654.58 553.047 653.92 552.444 653.26 551.837C652.992 551.59 652.722 551.341 652.45 551.09C644.197 543.434 634.034 533.969 620.751 518.753C609.387 505.678 600.843 493.376 594.097 482.171C593.918 481.874 593.741 481.578 593.565 481.284C591.839 478.393 590.244 475.591 588.745 472.875C584.576 465.317 581.162 458.423 577.907 451.943C570.6 437.367 565.669 424.371 561.986 413.067C555.557 393.185 553.176 379.02 552.133 368.84C551.036 357.609 551.587 350.98 552.079 346.263C552.128 345.81 552.178 345.375 552.228 344.956C552.401 343.509 552.574 342.235 552.709 341.043C553.941 330.415 555.053 320.921 557.427 309.475C557.96 306.937 558.567 304.294 559.267 301.532C559.994 298.664 560.657 296.002 561.251 293.523C562.569 288.038 563.514 283.679 564.289 279.97C564.781 277.621 565.206 275.544 565.631 273.577C565.638 273.54 565.646 273.504 565.653 273.467C565.712 273.194 565.775 272.919 565.834 272.65C565.879 272.447 565.92 272.242 565.966 272.038C565.969 271.953 565.977 271.879 565.981 271.822C565.984 271.778 565.987 271.743 565.989 271.721C565.989 271.716 565.988 271.712 565.987 271.707C566.023 271.302 566.093 270.968 566.108 270.899C566.132 270.78 566.16 270.675 566.173 270.621C566.242 270.337 566.347 269.973 566.42 269.731C566.603 269.116 566.933 268.044 567.48 266.382C567.912 264.92 568.291 263.501 568.79 261.705C568.821 261.592 568.851 261.48 568.882 261.368C569.373 259.613 569.965 257.568 570.8 254.985C571.557 252.638 573.263 250.842 574.556 251.016C575.853 251.184 576.253 253.223 575.495 255.546C574.711 257.951 574.154 259.853 573.664 261.578C573.634 261.687 573.603 261.798 573.572 261.908C573.066 263.704 572.602 265.404 572.067 267.192C571.887 267.791 571.699 268.406 571.522 268.978C571.233 270.013 570.94 271.208 570.618 272.624C570.554 272.908 570.484 273.203 570.418 273.503C569.99 275.428 569.524 277.658 568.992 280.153C568.149 284.108 567.141 288.701 565.769 294.446C565.108 297.219 564.376 300.186 563.577 303.379C562.933 305.957 562.367 308.451 561.862 310.887C559.558 322.106 558.411 332.026 557.24 343.05C557.14 344.008 557.033 344.938 556.925 345.896C556.862 346.455 556.799 347.022 556.738 347.607C556.277 352.3 555.708 357.997 556.824 369.18C557.836 378.717 560.101 392.252 566.355 411.605C569.936 422.597 574.732 435.274 581.864 449.545C585.218 456.248 588.812 463.49 593.003 471.056C594.422 473.617 595.913 476.217 597.481 478.843C597.681 479.178 597.883 479.515 598.086 479.852C604.643 490.734 612.82 502.514 623.676 515.047C636.948 530.294 646.978 539.601 655.285 547.315C655.515 547.526 655.745 547.737 655.976 547.948C656.035 548.003 656.095 548.057 656.154 548.112C656.512 548.441 656.868 548.769 657.221 549.093C669.537 560.493 687.322 578.869 698.866 593.804C706.095 603.196 712.55 610.571 720.969 619.755C723.6 622.619 726.514 625.431 730.211 628.798C732.343 630.738 734.73 632.858 737.482 635.273C739.596 637.128 741.924 639.16 744.513 641.404C756.169 651.429 772.254 665.58 797.572 686.193C803.874 691.298 809.758 695.668 815.318 699.672C815.594 699.872 815.87 700.07 816.145 700.268C817.949 701.563 819.725 702.827 821.467 704.062C828.723 709.206 835.497 713.951 841.518 718.869C846.46 722.91 857.72 731.473 871 739.645C880.552 745.541 890.877 751.046 900.121 754.801C903.808 756.304 907.324 757.539 910.542 758.454C911.723 758.791 912.9 759.121 914.087 759.446C924.267 762.25 934.685 764.483 943.221 764.651C950.724 764.068 958.855 764.072 967.059 763.946C979.601 763.806 988.806 762.998 998.742 759.519C1004 757.75 1009.25 755.766 1013.69 753.747C1017.98 751.919 1022.08 749.073 1021.4 749.75C1024.99 746.326 1026.3 744.477 1027.24 742.648C1028.19 740.818 1028.96 737.519 1029.08 732.996C1029.11 731.701 1029.12 730.551 1029.1 729.421C1029.1 728.951 1029.09 728.468 1029.08 727.995C1028.05 706.414 1021.75 681.553 1017.64 663.953C1013.23 645.838 1009.64 632.558 1007.86 625.875C1007.69 625.253 1007.54 624.684 1007.4 624.173C1007.28 623.716 1007.17 623.302 1007.07 622.936C1005.62 617.514 1004.16 612.692 1002.65 607.698C1002.57 607.424 1002.48 607.149 1002.4 606.875C1000.8 601.58 999.115 595.998 997.342 589.358C990.739 564.64 985.062 544.486 980.176 526.998C979.267 523.743 978.393 520.598 977.538 517.523C977.536 517.514 977.533 517.505 977.531 517.496C974.251 505.697 971.316 494.979 968.712 484.76C968.327 483.25 967.956 481.776 967.598 480.336C962.335 459.147 958.857 444.523 956.314 432.773C955.517 429.088 954.808 425.649 954.172 422.366C952.798 415.266 951.753 408.845 951.012 402.201C950.493 397.553 950.073 393.053 949.713 388.809C949.105 381.662 948.618 374.779 948.265 367.954C948.215 366.987 948.17 366.017 948.126 365.051C947.587 353.265 947.45 341.582 948.036 329.266C948.053 328.902 948.087 328.548 948.136 328.208C948.472 325.86 949.508 324.099 950.62 324.112C951.765 324.129 952.604 326.006 952.663 328.436C952.67 328.709 952.666 328.989 952.652 329.274C952.084 341.137 952.194 352.436 952.71 364.115C952.753 365.079 952.802 366.045 952.851 367.016C953.201 373.969 953.694 381.083 954.322 388.513C954.664 392.574 955.06 396.855 955.548 401.283C956.245 407.591 957.199 413.575 958.513 420.474C959.142 423.768 959.859 427.278 960.686 431.132C963.231 442.972 966.727 457.685 972.026 479.034C972.398 480.531 972.784 482.063 973.185 483.636C975.733 493.633 978.605 504.136 981.855 515.831C982.712 518.913 983.6 522.096 984.518 525.381C989.413 542.909 995.115 563.155 1001.76 588.017C1003.43 594.288 1005.03 599.591 1006.62 604.86C1006.71 605.158 1006.8 605.455 1006.89 605.752C1008.4 610.713 1009.93 615.795 1011.47 621.531C1011.67 622.307 1011.94 623.295 1012.25 624.476C1014.04 631.191 1017.66 644.555 1022.11 662.847C1026.25 680.626 1032.59 705.351 1033.68 727.887C1033.69 728.024 1033.69 728.159 1033.69 728.294C1033.73 729.849 1033.72 731.359 1033.7 732.981C1032.99 746.262 1030.89 746.874 1025.21 753.488C1025.17 753.638 1022.82 755.486 1020.54 756.843C1018.19 758.289 1015.61 759.692 1013.12 761.016C1008.87 763.278 1004.67 765.027 1000.88 766.401C997.24 767.75 994.185 768.481 991.383 768.945C990.371 769.112 989.408 769.243 988.478 769.346C984.462 769.777 981.099 769.789 977.53 769.895C973.6 769.997 969.829 769.949 966.094 769.902C959.564 769.809 953.37 769.778 946.124 769.745C936.47 769.713 924.807 767.257 914.661 764.512C914.646 764.508 914.63 764.504 914.615 764.5C913.404 764.174 912.228 763.852 911.061 763.526ZM582.581 219.889C583.709 217.521 585.561 216.044 586.704 216.601C587.847 217.16 587.851 219.536 586.728 221.896C584.05 227.52 581.419 233.148 578.902 238.721C578.386 239.863 577.68 240.826 576.974 241.408C576.243 242.025 575.5 242.269 574.913 242.007C574.342 241.75 574.025 241.059 573.984 240.129C573.931 239.194 574.18 237.984 574.714 236.801C577.249 231.189 579.892 225.536 582.581 219.889ZM912.862 788.932C910.254 788.219 908.068 786.479 907.967 785.094C907.874 783.713 909.869 783.212 912.432 783.931C913.777 784.306 916.027 784.908 919.042 785.651C927.716 787.73 942.953 791.384 962.381 792.806C976.141 793.809 992.09 793.243 1007.31 787.049C1018.95 782.387 1032.29 776.462 1040.14 768.13C1044.22 763.568 1047.56 758.744 1049.64 753.531C1051.38 749.183 1052.14 744.989 1052.45 740.806C1052.65 738.186 1052.6 735.575 1052.4 732.919C1051.21 717.165 1045.99 701.591 1038.56 669.392C1037.77 666.049 1036.98 662.758 1036.16 659.369C1021.47 599.583 1005.23 539.654 990.814 479.206C983.905 449.251 976.685 418.781 975.171 387.176C974.122 367.964 974.18 348.735 975.21 329.575C976.094 313.3 977.623 296.953 980.604 280.663C983.107 266.903 986.783 253.241 991.459 240.072C996.021 227.124 1001.5 214.444 1007.77 202.214C1010.87 196.145 1014.16 190.174 1017.6 184.298C1021.51 177.636 1025.65 171.125 1030 164.765C1038.34 152.556 1047.43 140.85 1057.24 129.736C1066.54 119.199 1076.49 109.149 1087.21 99.8347C1096.45 91.7735 1106.41 84.294 1116.67 77.6074C1117.79 76.874 1118.95 76.1297 1120.14 75.3766C1131.56 68.1557 1146.06 60.169 1161.45 53.3258C1175.46 47.1196 1190.81 40.1357 1206.42 38.7049C1222.63 37.2486 1235.89 36.6378 1242.13 36.4346C1244.9 36.3332 1247.15 37.3464 1247.31 38.6244C1247.1 39.8914 1244.99 40.9393 1242.25 41.0399C1236.16 41.2385 1223.03 41.8386 1206.95 43.281C1192.42 44.5593 1177.43 51.2621 1163.41 57.4924C1148.22 64.245 1133.86 72.1517 1122.62 79.2617C1121.57 79.9278 1120.55 80.5826 1119.55 81.2333C1109.31 87.8873 1099.43 95.2906 1090.22 103.322C1079.68 112.491 1069.86 122.404 1060.67 132.818C1050.99 143.797 1042.01 155.368 1033.76 167.438C1029.6 173.53 1025.64 179.759 1021.89 186.124C1018.37 192.116 1015.01 198.212 1011.86 204.411C1005.72 216.473 1000.41 228.963 996.01 241.735C991.508 254.718 988.043 268.098 985.733 281.624C982.985 297.622 981.68 313.758 981.034 329.869C980.284 348.827 980.526 367.824 981.869 386.746C983.831 417.545 991.444 447.46 998.816 477.196C1014.16 537.21 1031.21 596.879 1046.05 656.922C1046.9 660.406 1047.71 663.787 1048.52 667.24C1056.07 699.971 1057.25 716.403 1057.32 732.903C1057.33 735.417 1057.27 737.921 1057.11 740.483C1056.81 745.029 1056.05 749.759 1054.14 754.715C1051.79 760.85 1047.94 766.379 1043.46 771.377C1034.08 781.03 1020.7 786.637 1008.7 791.507C992.579 798.023 975.607 798.501 961.626 797.459C942.973 796.072 928.434 792.714 919.851 790.708C916.687 789.95 914.308 789.328 912.862 788.932ZM803.03 726.652C801.581 725.682 800.107 724.682 798.602 723.65C773.952 706.905 742.843 681.434 717.08 657.429C714.686 655.215 712.338 653.021 710.034 650.85C699.453 640.885 689.897 631.474 682.022 623.611C667.179 608.756 658.849 598.416 650.696 588.135C650.608 588.025 650.521 587.915 650.433 587.804C645.431 581.466 640.477 575.089 634.192 567.363C630.267 562.531 625.831 557.181 620.595 550.915C608 535.819 590.778 515.45 575.642 492.458C574.298 490.418 572.979 488.371 571.675 486.296C571.663 486.276 571.651 486.256 571.639 486.236C557.756 464.372 545.16 440.854 538.087 421.068C536.993 418.047 536.019 415.118 535.176 412.305C528.133 388.768 524.481 367.278 523.664 348.413C522.57 322.519 526.861 302.249 531.029 287.347C533.403 278.925 535.897 272.113 538.144 266.742C542.968 255.183 548.08 243.383 553.416 231.335C565.845 203.509 578.801 174.451 595.092 149.552C598.222 145.887 597.942 154.494 593.293 161.781C593.132 162.048 592.971 162.315 592.811 162.581C591.288 165.121 589.968 167.358 588.231 170.556C585.812 175.241 584.105 178.769 582.554 181.991C580.114 187.142 568.242 210.772 557.75 233.188C550.967 247.592 545.238 261.581 541.926 269.836C539.954 274.633 538.043 280.794 536.352 288.435C533.19 302.921 530.396 322.674 532.493 347.745C534.02 365.712 538.058 386.399 544.981 409.507C545.783 412.179 546.617 414.99 547.501 417.916C553.216 437.121 561.49 461.508 575.281 483.347C575.323 483.415 575.366 483.484 575.409 483.553C576.77 485.721 578.155 487.873 579.565 490.012C594.342 512.458 611.437 532.748 624.092 547.91C629.272 554.109 633.708 559.454 637.643 564.287C644.365 572.531 649.595 579.252 654.775 585.802C654.854 585.903 654.933 586.004 655.013 586.106C663.07 596.245 670.994 606.056 685.23 620.306C693.152 628.216 702.668 637.577 713.148 647.446C715.581 649.738 718.064 652.056 720.591 654.392C746.257 678.279 776.937 703.367 801.238 719.869C802.611 720.81 803.958 721.723 805.284 722.612C807.511 724.107 808.831 726.217 808.216 727.337C807.602 728.456 805.273 728.154 803.03 726.652ZM786.247 749.952C784.844 749.102 783.45 748.25 782.054 747.387C748.122 726.421 716.703 701.711 687.891 675.051C659.259 648.544 632.939 620.013 608.907 589.898C604.483 584.349 600.133 578.735 595.859 573.026C582.611 557.183 564.837 534.755 549.153 508.972C547.717 506.611 546.308 504.237 544.92 501.839C544.735 501.516 544.549 501.19 544.364 500.864C530.24 476.511 519.567 450.234 512.918 429.493C511.802 426.061 510.776 422.758 509.837 419.614C502.385 394.633 498.125 371.541 496.804 350.445C495.008 321.296 499.128 298.133 503.224 281.665C505.633 272.029 508.329 264.005 510.848 257.842C520.501 235.137 523.449 229.833 527.052 220.969C527.156 220.732 527.259 220.494 527.363 220.255C527.367 220.238 527.37 220.22 527.373 220.203C527.373 220.202 527.374 220.201 527.374 220.2C527.445 219.883 527.521 219.621 527.562 219.488C527.647 219.214 527.728 218.996 527.759 218.915C527.829 218.726 527.896 218.57 527.919 218.514C528.013 218.287 528.126 218.028 528.2 217.861C528.881 216.335 531.116 211.571 532.972 207.904C534.875 204.135 536.346 201.516 537.912 198.766C538.07 198.49 538.228 198.213 538.387 197.936C539.801 195.461 541.34 192.782 543.483 188.9C544.785 186.542 546.657 185.307 547.656 186.144C548.654 186.979 548.405 189.559 547.105 191.919C544.859 195.994 543.226 198.844 541.814 201.319C541.656 201.595 541.499 201.87 541.342 202.145C539.851 204.77 538.567 207.077 536.885 210.407C534.631 215.111 533.048 218.711 531.626 222.018C531.572 222.143 531.519 222.267 531.466 222.39C527.77 231.49 524.377 237.642 514.552 261.161C512.329 266.709 509.942 273.891 507.75 282.59C503.792 298.45 499.632 321.053 501.399 350.097C502.677 370.634 506.825 393.394 514.231 418.234C515.162 421.352 516.179 424.627 517.285 428.031C523.873 448.586 534.414 474.521 548.344 498.546C548.533 498.875 548.724 499.205 548.914 499.532C550.275 501.886 551.658 504.215 553.067 506.532C568.572 532.034 586.197 554.29 599.349 570.019C603.914 575.47 608.531 580.809 613.197 586.075C638.87 615.008 666.019 642.01 694.383 667.956C723.017 694.117 753.04 719.257 784.941 743.246C786.121 744.134 787.3 745.017 788.485 745.901C801.932 754.94 814.45 762.877 826.287 769.945C845.588 781.45 863.063 790.691 880.114 798.011C893.84 803.882 907.185 808.451 920.812 811.595C926.323 812.783 938.695 816.625 958.073 819.375C962.407 819.963 967.145 820.482 972.372 820.765C980.717 821.216 990.587 821.037 1001.12 819.039C1006.09 818.105 1011.13 816.779 1016.06 815.126C1029.76 809.815 1043.26 806.866 1061.99 789.551C1066.94 784.274 1072.17 777.674 1076.16 769.486C1079.91 761.839 1081.77 754.286 1082.63 747.693C1083.32 742.33 1083.44 737.467 1083.31 732.817C1082.71 713.55 1079.04 695.935 1071.85 664.35C1070.89 660.228 1069.86 655.884 1068.76 651.302C1057.13 603.402 1039.09 535.001 1029.98 496.833C1027.35 485.951 1025.43 477.578 1023.96 470.877C1022.6 464.67 1021.61 459.859 1020.82 455.874C1020.37 453.589 1019.97 451.506 1019.63 449.686C1018.71 444.816 1018.02 441.042 1017.07 436.163C1013.31 416.691 1010.88 401.833 1009.63 384.966C1008.53 370.831 1007.78 355.809 1007.94 337.513C1007.97 334.97 1009.05 332.803 1010.32 332.675C1011.6 332.549 1012.6 334.485 1012.57 337C1012.39 355.334 1013.13 370.421 1014.23 384.671C1015.47 401.297 1017.86 415.936 1021.62 435.408C1022.61 440.472 1023.34 444.488 1024.27 449.419C1024.62 451.236 1024.99 453.198 1025.43 455.384C1026.18 459.194 1027.13 463.809 1028.44 469.753C1029.9 476.435 1031.83 484.852 1034.49 495.876C1043.58 533.964 1061.61 602.288 1073.23 650.194C1074.33 654.753 1075.36 659.064 1076.31 663.176C1083.57 695.121 1087.29 712.725 1087.93 732.802C1088.05 737.248 1087.96 741.911 1087.36 747.103C1086.55 754.029 1084.74 762.099 1080.84 770.424C1076.51 779.685 1070.67 787.057 1065.29 792.788C1045 811.439 1031.51 814.03 1017.43 819.542C1012.63 821.15 1007.69 822.467 1002.81 823.422C991.861 825.586 981.572 825.846 972.96 825.426C967.131 825.142 961.965 824.573 957.333 823.944C937.936 821.167 926.464 817.6 921.698 816.624C907.072 813.347 892.768 808.466 878.172 802.204C860.593 794.637 842.775 785.167 823.453 773.627C811.675 766.582 799.345 758.747 786.247 749.952ZM1046.86 204.359C1045.64 206.493 1043.71 207.831 1042.52 207.339C1041.34 206.847 1041.35 204.678 1042.6 202.506C1047.35 194.234 1051.48 187.786 1055 182.506C1056.35 180.471 1057.62 178.612 1058.81 176.896C1066.78 165.508 1070.97 160.222 1077.59 152.666C1078.36 151.797 1079.13 150.934 1079.9 150.076C1088.8 140.222 1098.01 131.134 1107.34 123.097C1115.39 116.143 1123.44 110.112 1131.63 104.674C1133.32 103.544 1135.03 102.439 1136.73 101.356C1150.15 92.8282 1163.07 85.9188 1174.32 80.6696C1188.43 73.9457 1198.43 70.0241 1204.64 68.8043C1206.57 68.3911 1208.16 69.2296 1208.33 70.4878C1208.5 71.75 1207.37 72.9294 1205.62 73.3039C1199.96 74.4093 1190.38 78.1163 1176.28 84.8368C1165.22 89.9962 1152.46 96.8178 1139.21 105.238C1137.64 106.237 1136.07 107.256 1134.5 108.295C1126.34 113.694 1118.38 119.65 1110.36 126.58C1101.2 134.47 1092.13 143.418 1083.34 153.155C1082.6 153.973 1081.86 154.796 1081.13 155.623C1074.79 162.852 1070.87 167.769 1063.15 178.743C1061.8 180.677 1060.35 182.805 1058.77 185.181C1055.39 190.265 1051.41 196.462 1046.86 204.359Z" fill="#A669E5"/>
</g>
<g filter="url(#filter1_f_1_123)">
<path d="M1281.3 356.285C1274.11 379.401 1268.18 407.815 1261.86 430.385C1261.79 430.628 1261.72 430.871 1261.65 431.113C1261.56 431.427 1261.48 431.742 1261.39 432.058C1258.77 441.352 1256.04 450.774 1252.81 462.147C1252.4 463.584 1251.98 465.065 1251.55 466.589C1247.72 480.107 1243.14 496.649 1237.2 519.206C1217.38 595.022 1206.2 655.266 1202.45 673.868C1200.36 684.525 1198.1 695.337 1195.58 706.506C1189.17 734.513 1181.54 765.596 1169.34 801.378C1167.76 805.93 1166.09 810.542 1164.31 815.193C1162.87 818.975 1160.66 821.689 1159.45 821.294C1158.23 820.9 1158.47 817.574 1159.9 813.847C1161.62 809.337 1163.24 804.882 1164.77 800.477C1164.78 800.457 1164.79 800.437 1164.79 800.417C1177.18 764.181 1184.75 733.124 1191.09 705.416C1193.44 694.945 1195.57 684.796 1197.53 674.831C1201.36 655.873 1212.81 594.193 1233.13 516.465C1239.14 493.647 1243.79 476.883 1247.64 463.292C1248.06 461.8 1248.46 460.397 1248.87 458.958C1248.88 458.925 1248.89 458.892 1248.9 458.858C1252.17 447.379 1254.8 438.361 1257.31 429.451C1257.33 429.394 1257.34 429.337 1257.36 429.281C1257.4 429.147 1257.43 429.014 1257.47 428.88C1263.95 405.934 1269.84 377.585 1276.94 354.795C1278.31 350.406 1280.44 347.204 1281.63 347.647C1282.83 348.067 1282.65 351.927 1281.3 356.285ZM571.873 672.395C584.204 653.331 602.742 629.485 619.457 608.608C632.924 591.803 645.619 576.32 653.882 566.137C655.976 563.558 657.77 561.35 659.233 559.56C666.429 550.72 673.883 540.377 682.072 527.29C683.952 524.274 685.862 521.109 687.79 517.784C693.222 508.467 698.786 497.593 704.002 486.042C704.909 484.051 705.82 482.026 706.733 479.964C717.021 456.827 723.428 436.101 727.939 418.596C733.436 397.051 736.476 380.039 738.767 366.009C739.61 360.775 740.332 355.891 740.97 351.313C740.971 351.306 740.972 351.298 740.973 351.29C741.746 345.739 742.397 340.621 742.974 335.838C744.201 325.643 745.083 316.985 745.991 308.691C747.989 286.693 750.029 269.542 745.559 243.518C745.353 242.53 745.106 241.469 744.841 240.431C732.579 204.286 706.255 188.057 688.158 171.32C683.872 167.728 679.773 164.571 676.002 161.809C674.774 160.909 673.536 160.018 672.261 159.103C656.11 147.578 636.282 134.453 606.349 115.268C606.005 115.049 605.662 114.83 605.321 114.613C580.592 98.7236 557.548 85.7143 536.543 76.0244C535.928 75.7377 535.316 75.4537 534.706 75.1723C529.278 72.6662 524 70.3453 518.85 68.2119C504.388 62.2197 490.934 57.6897 478.038 54.4105C473.621 53.2873 469.294 52.2786 465.048 51.3674C432.635 44.4869 405.619 43.0623 383.464 42.951C355.79 42.9531 335.504 45.1585 319.973 47.1031C310.771 48.2886 303.193 49.4779 296.809 50.5489C287.368 52.1473 280.561 53.4681 275.035 54.6193C272.235 55.2069 269.762 55.7587 267.453 56.336C250.224 60.6655 234.643 66.5079 217.934 74.1106C214.66 75.6036 211.332 77.1755 207.933 78.8371C203.32 81.0915 198.561 83.519 193.652 86.1285C177.229 94.8969 166.01 102.711 157.467 108.99C153.738 111.745 150.522 114.234 147.512 116.594C147.457 116.638 147.402 116.682 147.348 116.726C146.929 117.054 146.512 117.379 146.098 117.705C145.786 117.951 145.478 118.2 145.169 118.443C145.057 118.552 144.953 118.645 144.877 118.717C144.816 118.773 144.769 118.816 144.738 118.844C144.733 118.85 144.728 118.857 144.723 118.863C144.169 119.371 143.666 119.778 143.562 119.862C143.432 119.968 143.31 120.063 143.221 120.132C143.188 120.157 143.16 120.179 143.138 120.197C142.706 120.536 142.139 120.962 141.761 121.245C140.784 121.975 139.09 123.231 136.485 125.177C134.241 126.913 132.126 128.624 129.491 130.781C129.326 130.917 129.16 131.053 128.995 131.189C126.428 133.294 123.429 135.765 119.668 138.857C116.246 141.67 112.484 143.463 111.233 142.837C109.986 142.209 111.737 139.379 115.169 136.546C118.723 133.613 121.533 131.283 124.109 129.16C124.272 129.025 124.434 128.891 124.597 128.756C127.285 126.545 129.839 124.466 132.647 122.291C133.59 121.562 134.566 120.817 135.478 120.13C136.925 119.006 138.532 117.73 140.407 116.245C140.653 116.05 140.903 115.852 141.158 115.65C141.602 115.299 142.061 114.94 142.527 114.572C145.537 112.198 149.052 109.45 153.131 106.421C162.674 99.3716 175.159 90.6517 193.274 81.0766C198.023 78.5781 202.68 76.2226 207.267 73.9999C210.148 72.6036 213.002 71.2597 215.835 69.9649C233.724 61.7992 251.215 55.263 270.422 50.7058C273.473 49.9846 276.421 49.3759 279.573 48.7696C284.173 47.8894 289.218 47.0034 295.709 45.9426C302.387 44.8636 310.579 43.5836 321.403 42.2435C336.332 40.4571 356.1 38.3475 383.43 38.3437C405.627 38.459 432.947 39.8444 466.044 46.8652C470.088 47.7332 474.209 48.6894 478.414 49.7483C492.147 53.1976 506.687 58.1322 521.543 64.342C526.521 66.4188 531.545 68.6326 536.595 70.9622C537.298 71.2868 538.004 71.6141 538.711 71.9442C559.894 81.7353 582.858 94.7239 607.338 110.394C607.535 110.519 607.732 110.645 607.929 110.771C636.982 129.347 656.222 142.017 672.327 153.364C672.883 153.755 673.452 154.159 674.01 154.556C674.704 155.05 675.391 155.543 676.079 156.039C680.74 159.406 685.842 163.289 691.261 167.855C709.329 184.961 735.019 199.275 749.339 239.025C750.14 242.049 750.683 244.828 751.094 247.459C754.303 272.366 752.589 289.197 750.383 311.22C749.522 318.712 748.737 326.486 747.552 336.403C747.047 340.616 746.467 345.227 745.765 350.339C745.108 355.131 744.337 360.378 743.406 366.184C741.079 380.498 737.999 397.789 732.413 419.701C727.795 437.649 721.174 459.002 710.563 482.719C709.785 484.466 709.011 486.181 708.241 487.871C703.011 499.435 697.442 510.37 691.847 519.979C689.855 523.418 687.851 526.735 685.852 529.938C677.516 543.258 669.218 554.838 660.808 565.088C659.908 566.182 658.887 567.425 657.704 568.875C649.972 578.357 636.647 594.562 622.387 612.342C605.882 632.942 588.796 655.034 577.949 671.783C576.82 673.524 575.684 675.274 574.545 677.031C568.767 685.954 562.92 695.037 557.799 703.604C554.252 709.531 551.027 715.243 548.337 720.555C540.384 739.215 528.053 760.619 519.996 782.1C513.904 797.924 509.217 813.149 508.919 825.978C507.393 861.012 508.481 892.889 519.223 910.746C523.518 918.249 528.078 925.061 532.763 931.075C533.3 931.766 533.839 932.447 534.385 933.126C549.526 952.024 567.082 964.762 584.399 972.773C607.875 983.61 630.004 988.92 646.604 992.199C658.294 994.483 667.036 995.528 672.833 996.133C673.786 996.232 674.648 996.317 675.44 996.392C676.146 996.46 676.765 996.514 677.327 996.565C685.723 997.314 693.299 997.55 701.359 997.636C701.795 997.64 702.233 997.644 702.674 997.647C711.195 997.708 720.258 997.597 731.06 997.472C738.683 997.381 746.104 997.189 753.283 996.939C784.059 995.825 810.623 993.959 834.137 992.185C839.511 991.774 844.735 991.365 849.832 990.952C849.847 990.951 849.862 990.95 849.877 990.949C872.239 989.131 892.04 987.337 910.837 985.639C923.995 984.447 935.583 983.269 945.643 982.131C961.927 980.288 974.575 978.606 984.87 976.885C990.1 976.01 994.742 975.116 998.773 974.193C1006.99 972.297 1012 970.557 1018.15 967.783C1018.84 967.475 1019.53 967.166 1020.22 966.857C1036.29 959.647 1050.23 952.626 1062.65 945.054C1063.76 944.379 1064.85 943.704 1065.93 943.02C1078.43 935.112 1089.29 926.574 1097.83 917.027C1098.41 916.373 1098.99 915.718 1099.58 915.062C1102.3 912.005 1105.27 910.147 1106.29 910.911C1107.3 911.679 1105.97 914.81 1103.23 917.895C1102.57 918.635 1101.92 919.373 1101.26 920.11C1092.61 929.77 1081.86 938.318 1069.3 946.359C1068.2 947.061 1067.08 947.767 1065.95 948.461C1053.4 956.188 1039.11 963.429 1022.67 970.809C1021.78 971.21 1020.89 971.609 1020 972.008C1014 974.713 1008.98 976.506 1001.16 978.382C997.013 979.369 992.241 980.319 986.692 981.264C976.069 983.07 962.934 984.819 946.129 986.719C936.091 987.854 924.584 989.023 911.567 990.203C892.971 991.885 873.403 993.659 851.023 995.483C845.89 995.9 840.609 996.319 835.162 996.736C811.464 998.529 784.639 1000.42 753.439 1001.55C746.307 1001.8 738.934 1001.99 731.353 1002.08C721.118 1002.2 712.414 1002.32 703.874 1002.28C703.387 1002.28 702.903 1002.27 702.422 1002.27C694.369 1002.2 686.26 1001.98 677.255 1001.19C676.056 1001.08 674.515 1000.94 672.694 1000.75C666.749 1000.14 657.739 999.068 645.724 996.72C628.879 993.391 606.447 988.018 582.483 976.963C564.536 968.673 546.288 955.404 530.69 935.885C530.537 935.693 530.384 935.501 530.232 935.308C524.298 927.844 519.373 920.38 515.158 913.188C500.804 886.52 503.167 858.838 502.092 839.093C501.978 834.43 501.954 829.971 501.97 825.715C501.911 815.586 504.158 806.638 506.659 798.809C507.291 796.849 507.939 794.977 508.593 793.182C510.433 788.144 512.273 783.71 514.046 779.451C514.952 777.27 515.847 775.176 516.755 773.074C524.713 755.042 532.306 741.367 540.755 724.125C544.448 716.71 548.987 708.759 553.888 700.709C558.638 692.894 563.715 685.002 568.464 677.659C568.478 677.637 568.493 677.615 568.507 677.592C569.662 675.81 570.765 674.105 571.873 672.395ZM71.982 182.035C68.5886 184.993 65.1895 186.66 64.3624 185.693C63.5405 184.722 65.6281 181.462 69.0494 178.48C77.1921 171.383 85.4351 164.514 93.7562 157.806C97.2484 154.99 100.714 153.562 101.479 154.577C102.241 155.597 100.024 158.668 96.5508 161.47C88.2708 168.148 80.0712 174.982 71.982 182.035ZM542.637 673.068C544.996 669.497 548.192 666.604 549.767 666.586C551.344 666.565 550.688 669.45 548.355 672.977C547.098 674.873 545.08 677.965 542.373 682.146C541.067 684.164 539.585 686.457 537.992 688.94C527.558 706.069 507.763 733.165 492.888 770.034C486.505 786.732 480.439 805.392 480.506 824.903C480.653 852.384 480.773 882.105 490.916 908.284C493.119 913.893 495.642 918.819 498.43 923.237C499.632 925.147 500.841 927.003 502.057 928.812C518.542 951.667 534.767 970.413 576.388 990.296C581.875 992.735 587.822 995.163 594.287 997.542C609.987 1003.32 626.324 1007.69 642.945 1011C678.844 1018.43 716.243 1018.43 753.982 1017.56C818.582 1015.6 883.646 1011.29 948.098 1005.29C975.802 1002.13 1004.59 1001.01 1028.24 990.82C1061.39 976.453 1094.69 960.724 1118.01 935.168C1142.32 908.627 1162.72 879.299 1176.96 846.569C1195.18 805.707 1206.27 761.563 1216.6 717.409C1217.01 715.6 1217.43 713.767 1217.85 711.909C1234.3 638.762 1249.35 565.153 1266.09 491.585C1269.81 475.282 1274.49 455.578 1279.84 434.799C1291.96 389.35 1304.52 338.985 1321.97 309.57C1327.19 301.237 1331.68 294.787 1335.16 290.569C1336.73 288.673 1338.5 287.096 1340.52 285.971C1341.54 285.415 1342.64 284.91 1344.17 284.603C1344.92 284.458 1345.89 284.376 1346.77 284.51C1347.67 284.637 1348.29 284.963 1348.17 285.095C1348.11 285.241 1347.29 285.239 1346.56 285.449C1345.76 285.654 1345.16 285.988 1344.64 286.349C1343.67 287.061 1343.08 287.816 1342.48 288.577C1341.3 290.108 1340.09 291.834 1338.63 293.602C1335.42 297.505 1331.03 303.784 1325.91 311.957C1309.2 339.895 1296.33 390.646 1284.31 435.897C1279.03 456.396 1274.41 475.827 1270.74 491.953C1253.95 565.689 1238.86 639.498 1222.34 712.999C1222 714.49 1221.67 715.964 1221.33 717.423C1210.92 762.036 1199.93 806.763 1181.57 848.631C1167.34 881.912 1146.69 912.087 1122.38 939.091C1098.12 966.11 1064.22 982.342 1031.03 997.175C1005.49 1008.38 976.704 1009.55 948.922 1013.06C884.26 1019.75 819.274 1024.7 754.306 1027.13C716.365 1028.26 678.163 1028.51 641.011 1020.94C623.825 1017.56 606.859 1013.05 590.458 1007C583.861 1004.56 577.8 1002 572.232 999.389C528.668 977.31 515.842 955.479 498.964 932.489C497.458 930.279 495.957 927.99 494.466 925.619C491.733 921.278 489.24 916.468 487.047 911.062C475.992 883.337 476.041 852.639 475.846 824.727C475.825 804.151 482.163 784.994 488.598 768.125C504.215 729.676 524.223 702.568 534.175 686.115C534.955 684.898 535.705 683.732 536.42 682.625C539.202 678.312 541.332 675.047 542.637 673.068ZM663.091 511.417C669.24 500.966 675.337 489.231 680.959 476.099C689.454 456.674 696.952 435.025 702.66 412.354C708.276 390.186 712.692 367.266 716.043 345.444C716.694 341.17 717.303 336.918 717.857 332.74C721.042 308.732 722.345 286.368 720.84 268.384C720.227 261.151 719.234 254.535 717.621 248.941C711.006 230.308 697.147 218.5 686.38 206.631C686.223 206.469 686.065 206.307 685.906 206.144C681.02 201.103 676.063 196.142 670.659 190.862C659.902 180.404 646.741 169.397 628.245 155.732C618.187 148.318 606.523 140.154 593.758 131.651C573.908 118.379 550.888 104.986 526.06 94.4476C522.511 92.9214 518.936 91.4411 515.338 90.015C515.303 90.0006 515.269 89.9862 515.234 89.9718C497.17 82.7853 478.315 77.5089 459.999 74.2074C433.086 69.2956 407.545 68.4873 386.861 68.3705C385.787 68.3636 384.721 68.3613 383.653 68.3634C353.833 68.4597 326.85 71.8451 303.137 77.0453C274.965 83.2299 251.483 92.5036 231.868 101.631C201.847 115.695 180.773 129.16 165.986 138.165C163.754 139.545 161.55 140.936 159.321 142.374C131.192 160.591 103.351 182.845 77.0855 206.939C58.1565 224.406 40.3339 243.016 23.6022 261.803C18.278 267.875 12.8362 273.79 8.22409 280.974C3.40567 287.745 6.5075 272.707 16.6447 262.166C16.994 261.767 17.3244 261.395 17.677 260.996C18.3699 260.214 19.0477 259.454 19.735 258.684C22.22 255.911 24.6798 253.179 27.8474 249.661C33.6117 243.112 37.955 238.316 41.9687 233.969C45.7154 229.925 57.4675 217.407 73.4449 202.999C98.5063 180.221 133.943 153.43 156.61 138.628C160.049 136.365 163.188 134.367 165.936 132.683C179.957 124.216 199.631 110.411 228.719 95.4114C248.08 85.4985 271.854 75.0755 300.98 68.0155C325.149 62.1673 352.782 58.301 383.577 58.1692C384.793 58.1656 386.006 58.1682 387.231 58.1769C408.329 58.3136 434.294 61.1642 461.423 67.7673C479.445 72.1147 497.925 78.1705 516.045 85.3237C516.169 85.3727 516.293 85.4218 516.417 85.4709C520.287 86.9969 524.134 88.5868 527.952 90.2296C552.89 100.815 576.266 114.39 596.35 127.831C609.093 136.322 620.786 144.507 630.926 151.98C649.38 165.611 662.794 176.782 673.758 187.402C679.875 193.363 685.412 198.908 690.786 204.492C690.932 204.645 691.077 204.797 691.222 204.949C701.875 216.844 714.927 227.726 722.021 247.566C723.771 253.624 724.784 260.46 725.424 267.93C726.985 286.621 725.621 309.214 722.436 333.305C721.838 337.822 721.178 342.41 720.468 347.028C717.104 368.759 712.715 391.441 707.136 413.459C701.373 436.356 693.761 458.327 685.189 477.925C679.612 490.951 673.504 502.767 667.402 513.178C665.229 516.907 662.419 519.501 661.25 518.973C660.068 518.462 660.939 515.093 663.091 511.417ZM638.883 495.956C644.546 485.438 649.057 475.553 653.495 464.249C661.286 444.677 667.158 425.428 671.916 404.762C677.553 380.162 682.057 354.066 685.317 328.727C688.714 303.065 690.07 272.476 686.524 258.664C687.251 258.496 681.765 249.725 674.096 241.818C666.442 233.599 657.316 224.874 648.1 216.056C636.8 205.232 623.223 194.064 609.729 183.279C599.742 175.896 588.082 167.544 575.349 158.776C556.501 145.76 535.928 133.182 513.286 122.925C509.897 121.372 506.504 119.874 503.105 118.437C502.64 118.239 502.175 118.042 501.71 117.846C485.75 111.161 469.662 105.975 453.777 102.349C429.202 96.6913 405.395 94.8136 386.173 94.7388C385.398 94.735 384.623 94.7339 383.85 94.7354C356.237 94.8158 331.033 98.1173 309.352 103.07C283.75 108.922 262.62 117.564 244.393 126.367C216.332 140.007 196.28 153.332 181.824 162.123C179.844 163.343 177.969 164.513 176.17 165.648C151.263 181.515 143.995 187.555 133.533 195.886C133.227 196.131 132.922 196.375 132.617 196.62C132.599 196.639 132.582 196.659 132.564 196.678C132.219 197.034 131.92 197.32 131.764 197.466C131.447 197.762 131.18 197.994 131.081 198.081C130.85 198.281 130.652 198.443 130.582 198.501C130.295 198.739 129.965 199.008 129.751 199.18C127.756 200.774 121.5 205.751 116.577 209.702C111.526 213.747 107.905 216.581 104.106 219.587C103.721 219.892 103.337 220.196 102.954 220.5C100.656 222.329 98.2395 224.272 95.3391 226.694C93.9253 227.875 92.4032 229.166 90.7305 230.615C87.609 233.318 84.6901 234.54 84.1767 233.28C83.675 232.013 85.7791 228.755 88.9439 226.032C90.0927 225.043 91.1549 224.142 92.1827 223.278C96.0421 220.038 99.1006 217.597 101.842 215.43C102.226 215.128 102.611 214.825 102.997 214.523C106.67 211.637 109.901 209.115 114.411 205.513C120.875 200.22 125.701 196.28 130.129 192.701C140.683 184.277 148.877 177.537 173.421 161.851C175.991 160.223 178.733 158.512 181.674 156.714C195.374 148.452 214.716 135.679 242.311 122.255C260.561 113.441 282.033 104.594 308.282 98.5885C330.189 93.5837 355.685 90.2162 383.815 90.1299C384.585 90.1284 385.356 90.1294 386.127 90.133C405.637 90.2054 429.798 92.1063 454.772 97.8521C470.926 101.536 487.305 106.819 503.479 113.594C503.965 113.796 504.449 113.999 504.934 114.204C508.356 115.65 511.769 117.157 515.173 118.717C538.107 129.103 558.984 141.872 577.936 154.963C590.707 163.758 602.394 172.13 612.413 179.536C626.437 189.93 640.431 200.64 652.379 211.277C670.669 227.458 693.097 248.639 694.645 256.125C699.55 273.087 698.144 303.576 694.871 329.906C691.645 355.657 686.918 381.933 680.612 406.91C675.321 427.786 668.565 447.393 659.657 466.908C654.691 477.93 649.492 487.671 643.172 497.751C634.714 512.333 625.269 526.123 616.089 539.062C612.717 543.804 609.357 548.446 606.032 552.996C571.224 600.346 542.476 637.019 517.961 674.111C516.522 676.287 515.138 678.409 513.744 680.567C508.39 689.649 491.821 709.829 472.203 747.899C470.53 751.324 468.874 754.925 467.287 758.639C463.813 766.804 460.248 775.815 457.181 786.066C453.896 797.108 451.173 809.772 450.825 823.78C450.614 849.185 448.937 879.607 460.378 914.319C463.538 923.464 467.47 931.679 472.076 939.07C472.624 939.945 473.176 940.814 473.731 941.676C492.559 968.579 509.047 994.198 562.476 1020.73C567.412 1022.99 572.644 1025.2 578.199 1027.35C595.223 1033.95 615.128 1039.74 636.526 1044C674.411 1051.98 716.712 1052.2 755.125 1051.26C796.991 1050.14 835.935 1047.78 864.748 1045.98C900.034 1043.71 920.002 1042.23 934.152 1041.21C938.072 1040.93 941.539 1040.67 944.751 1040.43C947.169 1040.24 949.578 1040.05 951.766 1039.87C957.088 1039.44 962.043 1039 968.015 1038.39C992.813 1035.52 1016.76 1033.92 1042.2 1022.69C1071.15 1009.19 1102.98 996.73 1137.44 962.738C1139.46 960.639 1141.53 958.846 1143.17 957.766C1144.28 957.089 1145.2 956.803 1145.71 957.059C1146.33 957.372 1146.22 958.44 1145.52 959.883C1144.75 961.334 1143.44 963.142 1141.73 964.947C1106.22 1000.49 1073.61 1013.09 1044.06 1026.92C1017.54 1038.58 993.132 1040.11 968.15 1043.02C962.335 1043.61 957.38 1044.04 952.253 1044.46C949.586 1044.68 946.773 1044.9 943.847 1045.13C940.685 1045.37 937.317 1045.61 933.599 1045.88C919.653 1046.88 899.883 1048.35 864.731 1050.6C835.972 1052.39 797.135 1054.75 755.281 1055.87C716.772 1056.81 674.05 1056.61 635.645 1048.53C614.079 1044.23 593.974 1038.4 576.743 1031.73C571.021 1029.52 565.635 1027.25 560.559 1024.92C506.661 998.179 489.911 972.63 470.674 945.462C469.818 944.148 468.959 942.804 468.112 941.451C463.605 934.209 459.704 926.181 456.527 917.304C444.101 880.793 446.034 849.436 446.204 823.606C446.559 809.596 449.2 796.952 452.391 785.963C455.622 774.908 459.41 765.342 463.061 756.758C464.49 753.416 465.969 750.172 467.467 747.061C487.76 707.37 503.457 688.723 507.993 680.783C510.044 677.594 512.067 674.494 514.183 671.314C539.213 633.67 568.589 596.19 602.783 549.621C605.956 545.274 609.149 540.86 612.339 536.375C621.429 523.568 630.67 510.06 638.883 495.956ZM1250.29 728.749C1249.29 733.077 1247.42 736.492 1246.1 736.508C1244.8 736.492 1244.56 733.023 1245.55 728.749C1246.34 725.358 1247.03 722.298 1247.75 719.162C1251.74 701.495 1254.58 688.05 1256.86 677.257C1261.78 653.777 1264.06 642.509 1267.85 625.601C1277.57 582.038 1286.73 540.004 1295.27 502.341C1300.2 480.57 1304.93 460.272 1309.42 442.062C1317.89 407.702 1325.4 380.578 1330.82 363.967C1332.12 359.965 1334.18 357.139 1335.37 357.588C1336.57 358.028 1336.45 361.533 1335.17 365.492C1329.81 381.915 1322.34 408.873 1313.9 443.16C1309.46 461.124 1304.79 481.174 1299.91 502.702C1291.36 540.376 1282.18 582.549 1272.39 626.396C1268.72 642.795 1266.56 653.455 1261.75 676.424C1259.42 687.49 1256.49 701.446 1252.24 720.252C1251.61 723.036 1250.98 725.802 1250.29 728.749Z" fill="#D9380A"/>
</g>
<defs>
<filter id="filter0_f_1_123" x="479.372" y="0" width="784.938" height="842.595" filterUnits="userSpaceOnUse" color-interpolation-filters="sRGB">
<feFlood flood-opacity="0" result="BackgroundImageFix"/>
<feBlend mode="normal" in="SourceGraphic" in2="BackgroundImageFix" result="shape"/>
<feGaussianBlur stdDeviation="8.5" result="effect1_foregroundBlur_1_123"/>
</filter>
<filter id="filter1_f_1_123" x="0" y="32.3438" width="1354.18" height="1029.91" filterUnits="userSpaceOnUse" color-interpolation-filters="sRGB">
<feFlood flood-opacity="0" result="BackgroundImageFix"/>
<feBlend mode="normal" in="SourceGraphic" in2="BackgroundImageFix" result="shape"/>
<feGaussianBlur stdDeviation="3" result="effect1_foregroundBlur_1_123"/>
</filter>
</defs>
</svg>
